<svg xmlns="http://www.w3.org/2000/svg" viewBox="0 0 7.17 7.17"><defs><style>.cls-1{fill:#88a0b8;}</style></defs><title>ico-settings</title><g id="Layer_2" data-name="Layer 2"><g id="Layer_1-2" data-name="Layer 1"><path class="cls-1" d="M3.59,1.71A1.88,1.88,0,1,0,5.47,3.59,1.88,1.88,0,0,0,3.59,1.71m0,3.39A1.52,1.52,0,1,1,5.1,3.59,1.52,1.52,0,0,1,3.59,5.1"/><path class="cls-1" d="M4.19,0H3L2.74.85a3,3,0,0,0-.49.21L1.48.62l-.86.86.44.77a3,3,0,0,0-.21.49L0,3V4.19l.85.24a2.68,2.68,0,0,0,.21.49L.62,5.7l.86.85.77-.44a2.33,2.33,0,0,0,.49.21L3,7.17H4.19l.24-.85a2.13,2.13,0,0,0,.49-.21l.77.44.86-.85-.44-.78a2.13,2.13,0,0,0,.21-.49l.85-.24V3l-.85-.24a2.33,2.33,0,0,0-.21-.49l.44-.77L5.69.62l-.77.44A2.68,2.68,0,0,0,4.43.85Zm-.6,6.12A2.54,2.54,0,1,1,6.12,3.59,2.54,2.54,0,0,1,3.59,6.12"/></g></g></svg>