<svg xmlns="http://www.w3.org/2000/svg" viewBox="0 0 10.07 5.48"><defs><style>.cls-1{fill:#88a0b8;}</style></defs><title>ico-dashboard</title><g id="Layer_2" data-name="Layer 2"><g id="Layer_1-2" data-name="Layer 1"><path class="cls-1" d="M.29,3.34l1.27.53A3.71,3.71,0,0,0,1.37,5H0v-.3A4.71,4.71,0,0,1,.29,3.34"/><path class="cls-1" d="M1.3,1.66l.48.49c.27.26.43.55.36.62a3.85,3.85,0,0,0-.47.81L1,3.32C.69,3.17.46,2.93.52,2.79A5,5,0,0,1,1.3,1.66"/><path class="cls-1" d="M3,.45l.25.63c.14.35.18.68.08.73a3.29,3.29,0,0,0-.81.6L2,1.92c-.27-.27-.4-.57-.28-.69A5,5,0,0,1,3,.45"/><path class="cls-1" d="M3.24.33A5,5,0,0,1,4.88,0V1.37a3.78,3.78,0,0,0-1.12.23Z"/><path class="cls-1" d="M6.91.36,6.65,1c-.15.35-.36.6-.46.56a3.66,3.66,0,0,0-1-.18V.69c0-.38.14-.69.3-.68A4.66,4.66,0,0,1,6.91.36"/><path class="cls-1" d="M8.56,1.44l-.48.48c-.27.27-.55.43-.63.35a3.33,3.33,0,0,0-.79-.52l.27-.63c.15-.35.38-.58.52-.52a5.08,5.08,0,0,1,1.11.84"/><path class="cls-1" d="M9.7,3.13l-.64.26c-.35.14-.67.17-.71.07a3.33,3.33,0,0,0-.55-.83l.49-.48c.27-.27.57-.39.68-.28A5,5,0,0,1,9.7,3.13"/><path class="cls-1" d="M10.07,5H8.7V4.84a3.57,3.57,0,0,0-.17-.91l.64-.25c.35-.15.68-.15.72,0A4.67,4.67,0,0,1,10.07,5"/><path class="cls-1" d="M7.77,3.43c.06-.05,0-.16-.07-.13L4.57,4.45a.53.53,0,0,0-.18.73.52.52,0,0,0,.71.24l2.67-2"/></g></g></svg>