<svg xmlns="http://www.w3.org/2000/svg" viewBox="0 0 7.7 7.71"><defs><style>.cls-1{fill:#88a0b8;}</style></defs><title>ico-users</title><g id="Layer_2" data-name="Layer 2"><g id="Layer_1-2" data-name="Layer 1"><path class="cls-1" d="M3.83,3.84A1.63,1.63,0,1,0,2.21,2.2,1.63,1.63,0,0,0,3.83,3.84M7.2,7.71c-.06,0-.1-.18-.1-.39a2.7,2.7,0,0,0-.74-1.68A3.07,3.07,0,0,0,4.25,4.48a3.1,3.1,0,0,0-2.61.83,3.18,3.18,0,0,0-1,2.05,1.68,1.68,0,0,0,0,.29s0,.06-.1.06H.07A2.32,2.32,0,0,1,0,6.81,3.32,3.32,0,0,1,1.75,4.39c.44-.19.67-.45.5-.57C1.9,3.7,1.62,3,1.61,2.23A2.1,2.1,0,0,1,2.27.63a2.27,2.27,0,0,1,3.18,0c.92,1,.82,2.55.24,3l-.57.42.07,0A3.77,3.77,0,0,1,7.54,6.6a3.26,3.26,0,0,1,.15.81s0,0,0,.06v.2s0,0-.1,0Z"/></g></g></svg>