<svg xmlns="http://www.w3.org/2000/svg" viewBox="0 0 19.84 21.31"><defs><style>.cls-1{fill:#fff;}</style></defs><title>nextmune-small-logo</title><g id="Layer_2" data-name="Layer 2"><g id="Layer_1-2" data-name="Layer 1"><path class="cls-1" d="M14,19.68v-18a.15.15,0,0,0-.15-.15.13.13,0,0,0-.15.13s0,0,0,0v18a.14.14,0,0,0,.12.15h0a.15.15,0,0,0,.15-.15m-2.62,1.51V.15A.15.15,0,0,0,11.24,0h0a.16.16,0,0,0-.16.15v21a.16.16,0,0,0,.16.16.17.17,0,0,0,.15-.16m-2.62,0V.15A.15.15,0,0,0,8.62,0a.16.16,0,0,0-.16.15v21a.16.16,0,0,0,.16.16.17.17,0,0,0,.15-.16M6.15,19.68v-18A.16.16,0,0,0,6,1.52H6a.15.15,0,0,0-.15.15h0v18a.15.15,0,0,0,.15.15.14.14,0,0,0,.15-.14h0"/><path class="cls-1" d="M19.84,16V5.33a.75.75,0,0,0-.75-.74.74.74,0,0,0-.73.74V16a.73.73,0,0,0,.73.74.75.75,0,0,0,.75-.74h0m-2.62,1.55V3.83a.74.74,0,0,0-1.48,0h0V17.51a.74.74,0,0,0,.74.74.75.75,0,0,0,.74-.74m-2.6,0v-5.3a.76.76,0,0,0-1.52,0v5.28a.76.76,0,1,0,1.52,0h0M12,14.7V9.42a.77.77,0,0,0-.76-.76h0a.76.76,0,0,0-.77.76V14.7a.77.77,0,1,0,1.53,0M9.38,11.91V6.63A.78.78,0,0,0,8.52,6a.77.77,0,0,0-.67.68v5.28a.76.76,0,0,0,.67.85.77.77,0,0,0,.86-.67v-.18M6.76,9.12V3.84a.76.76,0,1,0-1.52,0V9.12a.77.77,0,1,0,1.53,0M4.12,17.51V3.83a.76.76,0,0,0-.84-.66.74.74,0,0,0-.65.66V17.51a.75.75,0,0,0,.83.66.76.76,0,0,0,.66-.66M1.5,16V5.33a.74.74,0,0,0-.74-.74h0A.74.74,0,0,0,0,5.33V16a.74.74,0,0,0,.65.83.76.76,0,0,0,.84-.66V16"/></g></g></svg>