<svg xmlns="http://www.w3.org/2000/svg" viewBox="0 0 126.15 21.35"><defs><style>.cls-1{fill:#fff;}</style></defs><title>nextmune-logo</title><g id="Layer_2" data-name="Layer 2"><g id="Layer_1-2" data-name="Layer 1"><path class="cls-1" d="M126.15,10.69c0-3.46-2.2-5.83-5.4-5.83s-5.63,2.38-5.63,5.87a5.49,5.49,0,0,0,5.78,5.81,6.75,6.75,0,0,0,4.74-1.68l-1.76-1.93A4.48,4.48,0,0,1,121.07,14a2.69,2.69,0,0,1-2.86-2.3h7.89a10,10,0,0,0,.05-1m-3-1h-4.93a2.48,2.48,0,0,1,4.93,0m-12.34,6.6h3V9.19a4.14,4.14,0,0,0-4.33-4.33,3.71,3.71,0,0,0-3.27,1.6V5.15h-2.92V16.26h3V10.17a2.28,2.28,0,0,1,2.35-2.51c1.37,0,2.17.89,2.17,2.49Zm-9.3-4.74V5.16h-3v6.1c0,1.78-1,2.5-2.28,2.5S94,13,94,11.26V5.16H91v6.36c0,3.51,2.48,5,5.27,5s5.26-1.51,5.26-5M86.43,16.26h3V9.19A4.13,4.13,0,0,0,85,4.86a4.19,4.19,0,0,0-3.78,1.9,4.22,4.22,0,0,0-3.67-1.9,3.74,3.74,0,0,0-3.28,1.6V5.15H71.39V16.26h3V10.17a2.28,2.28,0,0,1,2.36-2.51c1.36,0,2.17.89,2.17,2.49v6.11h3V10.17a2.28,2.28,0,0,1,2.36-2.51c1.35,0,2.17.89,2.17,2.49ZM65.81,11.87V7.81h4V5.15h-4V1.86h-3V5.15H60.66V7.81h2.15v4.3c0,2.87,1.41,4.43,4.17,4.43a6.16,6.16,0,0,0,3.68-1.17L69.56,13a4.44,4.44,0,0,1-2.09.72c-.93,0-1.66-.51-1.66-1.89m-5.37,4.39-4-5.65,4-5.46H56.9L54.51,8.6l-2.4-3.45H48.56l4,5.47-4.09,5.64h3.47l2.46-3.53,2.5,3.53ZM48.59,10.69c0-3.46-2.21-5.83-5.41-5.83s-5.63,2.38-5.63,5.87a5.5,5.5,0,0,0,5.78,5.81,6.74,6.74,0,0,0,4.74-1.68l-1.76-1.93A4.48,4.48,0,0,1,43.5,14a2.69,2.69,0,0,1-2.86-2.3h7.89a9.81,9.81,0,0,0,.06-1m-3-1H40.65a2.48,2.48,0,0,1,4.93,0m-12.34,6.6h3V9.19a4.14,4.14,0,0,0-4.33-4.33,3.72,3.72,0,0,0-3.27,1.6V5.15H25.72V16.26h3V10.17a2.28,2.28,0,0,1,2.35-2.51c1.37,0,2.17.89,2.17,2.49Z"/><path class="cls-1" d="M14,19.68v-18a.15.15,0,0,0-.15-.15.14.14,0,0,0-.15.15v18a.14.14,0,0,0,.15.15.15.15,0,0,0,.15-.15m-2.62,1.51V.15A.15.15,0,0,0,11.23,0a.16.16,0,0,0-.16.15v21a.16.16,0,0,0,.16.16.16.16,0,0,0,.15-.16m-2.62,0V.15A.15.15,0,0,0,8.61,0a.16.16,0,0,0-.16.15v21a.16.16,0,0,0,.16.16.16.16,0,0,0,.15-.16M6.14,19.68v-18A.15.15,0,0,0,6,1.52a.15.15,0,0,0-.15.15v18a.15.15,0,0,0,.15.15.15.15,0,0,0,.16-.15"/><path class="cls-1" d="M19.83,16V5.33a.74.74,0,0,0-1.48,0V16a.74.74,0,1,0,1.48,0m-2.62,1.55V3.83a.74.74,0,1,0-1.48,0V17.51a.74.74,0,0,0,1.48,0m-2.6,0V12.21a.76.76,0,0,0-1.52,0v5.28a.76.76,0,1,0,1.52,0M12,14.7V9.42a.76.76,0,0,0-.76-.76.77.77,0,0,0-.77.76V14.7a.78.78,0,0,0,.77.77A.77.77,0,0,0,12,14.7M9.37,11.91V6.63a.77.77,0,0,0-1.53,0v5.28a.77.77,0,1,0,1.53,0M6.75,9.12V3.84A.76.76,0,0,0,6,3.08a.77.77,0,0,0-.77.76V9.12A.78.78,0,0,0,6,9.89a.77.77,0,0,0,.76-.77M4.11,17.51V3.83a.75.75,0,0,0-1.49,0V17.51a.75.75,0,0,0,1.49,0M1.49,16V5.33a.74.74,0,0,0-.75-.74A.74.74,0,0,0,0,5.33V16a.75.75,0,1,0,1.49,0"/></g></g></svg>