<svg xmlns="http://www.w3.org/2000/svg" xmlns:xlink="http://www.w3.org/1999/xlink" viewBox="0 0 137.35 147.82"><defs><style>.cls-1{fill:url(#linear-gradient);}.cls-2{fill:none;}.cls-3{mask:url(#mask);}.cls-4{clip-path:url(#clip-path);}.cls-5{fill:#88a0b8;}</style><linearGradient id="linear-gradient" x1="-9.65" y1="147.19" x2="-8.65" y2="147.19" gradientTransform="matrix(0, -185.06, -185.06, 0, 27628.55, -1684.13)" gradientUnits="userSpaceOnUse"><stop offset="0" stop-color="#fff"/><stop offset="1"/></linearGradient><mask id="mask" x="-55.51" y="-511.99" width="889.72" height="719.63" maskUnits="userSpaceOnUse"><g transform="translate(-1 -1)"><rect class="cls-1" x="-31.02" y="-480.33" width="842.74" height="658.29" transform="translate(12.43 28.84) rotate(-4.3)"/></g></mask><clipPath id="clip-path" transform="translate(-1 -1)"><rect class="cls-2" width="139.35" height="149.82"/></clipPath></defs><title>sidebar-candles</title><g id="Layer_2" data-name="Layer 2"><g id="Layer_1-2" data-name="Layer 1"><g class="cls-3"><g class="cls-4"><path class="cls-5" d="M43.51,137.29V12.55a1.06,1.06,0,0,0-2.11,0V137.29a1.06,1.06,0,0,0,2.11,0m18.15,10.48V2.05a1.06,1.06,0,0,0-2.12,0V147.77a1.06,1.06,0,0,0,2.12,0m18.15,0V2.05a1.06,1.06,0,0,0-2.12,0V147.77a1.06,1.06,0,0,0,2.12,0M98,137.29V12.55a1.06,1.06,0,0,0-2.11,0V137.29a1.06,1.06,0,0,0,2.11,0" transform="translate(-1 -1)"/><path class="cls-5" d="M11.31,111.55V37.94A5.16,5.16,0,1,0,1,37.94v73.61a5.16,5.16,0,1,0,10.31,0m18.15,10.68V27.52a5.16,5.16,0,0,0-10.31,0v94.71a5.16,5.16,0,0,0,10.31,0m18.27-58V27.58a5.28,5.28,0,1,0-10.56,0v36.6a5.28,5.28,0,1,0,10.56,0M65.88,83.5V46.9a5.28,5.28,0,1,0-10.56,0V83.5a5.28,5.28,0,1,0,10.56,0M84,102.81V66.22a5.28,5.28,0,0,0-10.56,0v36.59a5.28,5.28,0,1,0,10.56,0m18.15,19.33V85.54a5.28,5.28,0,1,0-10.56,0v36.6a5.28,5.28,0,1,0,10.56,0m18,.09V27.52a5.16,5.16,0,0,0-10.31,0v94.71a5.16,5.16,0,0,0,10.31,0m18.15-10.68V37.94a5.16,5.16,0,1,0-10.31,0v73.61a5.16,5.16,0,1,0,10.31,0" transform="translate(-1 -1)"/></g></g></g></g></svg>